<svg xmlns="http://www.w3.org/2000/svg" viewBox="0 0 1200 675" role="img" aria-labelledby="title desc">
  <title id="title">Research lab thumbnail</title>
  <desc id="desc">A warm editorial illustration of a medical research lab with microscope, test tubes, product sketches, and prototype parts.</desc>
  <defs>
    <linearGradient id="paper" x1="0" x2="1" y1="0" y2="1">
      <stop offset="0" stop-color="#fff8ef"/>
      <stop offset=".52" stop-color="#fffdf8"/>
      <stop offset="1" stop-color="#edf8f1"/>
    </linearGradient>
    <linearGradient id="peach" x1="0" x2="1" y1="0" y2="1">
      <stop offset="0" stop-color="#fff1e5"/>
      <stop offset="1" stop-color="#f7c6aa"/>
    </linearGradient>
    <linearGradient id="mint" x1="0" x2="1" y1="0" y2="1">
      <stop offset="0" stop-color="#e8f6ee"/>
      <stop offset="1" stop-color="#b9d7c4"/>
    </linearGradient>
    <linearGradient id="ink" x1="0" x2="1" y1="0" y2="1">
      <stop offset="0" stop-color="#353832"/>
      <stop offset="1" stop-color="#1d211e"/>
    </linearGradient>
    <filter id="softShadow" x="-20%" y="-20%" width="140%" height="150%">
      <feDropShadow dx="0" dy="20" stdDeviation="18" flood-color="#523e23" flood-opacity=".13"/>
    </filter>
    <pattern id="grid" width="32" height="32" patternUnits="userSpaceOnUse">
      <path d="M32 0H0v32" fill="none" stroke="#927854" stroke-opacity=".06" stroke-width="1"/>
    </pattern>
  </defs>

  <rect width="1200" height="675" fill="url(#paper)"/>
  <rect width="1200" height="675" fill="url(#grid)" opacity=".85"/>
  <path d="M688 0h512v675H548z" fill="#dff0e7" opacity=".48"/>
  <circle cx="142" cy="76" r="178" fill="#ffd8b9" opacity=".42"/>
  <circle cx="1024" cy="116" r="210" fill="#c7e4d2" opacity=".45"/>

  <g filter="url(#softShadow)">
    <rect x="116" y="96" width="968" height="496" rx="30" fill="#fffdf8" opacity=".92"/>
    <rect x="116" y="96" width="968" height="496" rx="30" fill="none" stroke="#a07741" stroke-opacity=".16"/>
  </g>

  <g transform="translate(164 140)">
    <rect x="0" y="0" width="330" height="408" rx="18" fill="#fffaf2" stroke="#a07741" stroke-opacity=".15"/>
    <path d="M0 56h330" stroke="#d86657" stroke-opacity=".26" stroke-width="3"/>
    <circle cx="44" cy="31" r="9" fill="#d86657" opacity=".55"/>
    <circle cx="75" cy="31" r="9" fill="#c98621" opacity=".42"/>
    <circle cx="106" cy="31" r="9" fill="#6f9272" opacity=".44"/>
    <path d="M42 104h188M42 142h246M42 180h210" stroke="#574c43" stroke-opacity=".28" stroke-width="12" stroke-linecap="round"/>
    <path d="M42 238h246M42 278h188M42 318h224" stroke="#6f9272" stroke-opacity=".28" stroke-width="10" stroke-linecap="round"/>
    <g transform="translate(226 226)">
      <rect x="0" y="0" width="76" height="96" rx="14" fill="url(#mint)" stroke="#6f9272" stroke-opacity=".22"/>
      <path d="M20 74c18-22 28-39 32-68" fill="none" stroke="#fffdf8" stroke-width="8" stroke-linecap="round"/>
      <circle cx="36" cy="74" r="9" fill="#6f9272" opacity=".62"/>
    </g>
  </g>

  <g transform="translate(515 150)">
    <rect x="0" y="232" width="436" height="42" rx="21" fill="#3a352f" opacity=".12"/>
    <path d="M94 70l112 46-30 72-112-47z" fill="url(#ink)"/>
    <path d="M113 49l40 17-18 43-40-17z" fill="#4b4238"/>
    <path d="M176 143c58 17 83 54 76 111" fill="none" stroke="#252927" stroke-width="28" stroke-linecap="round"/>
    <path d="M220 252h110" stroke="#252927" stroke-width="28" stroke-linecap="round"/>
    <path d="M318 186h42c28 0 50 22 50 50v16H318z" fill="#252927"/>
    <rect x="280" y="274" width="176" height="38" rx="19" fill="#252927"/>
    <rect x="303" y="312" width="130" height="34" rx="17" fill="#4b4238"/>
    <circle cx="75" cy="74" r="30" fill="#fffdf8" stroke="#d86657" stroke-opacity=".36" stroke-width="9"/>
    <circle cx="75" cy="74" r="13" fill="#d86657" opacity=".45"/>
    <path d="M60 232c-29 21-64 20-86-2" fill="none" stroke="#d86657" stroke-width="10" stroke-linecap="round" opacity=".5"/>
  </g>

  <g transform="translate(845 136)">
    <rect x="0" y="0" width="164" height="354" rx="28" fill="#fffaf2" stroke="#a07741" stroke-opacity=".14"/>
    <rect x="34" y="50" width="32" height="218" rx="16" fill="#fffdf8" stroke="#a07741" stroke-opacity=".18"/>
    <rect x="98" y="50" width="32" height="218" rx="16" fill="#fffdf8" stroke="#a07741" stroke-opacity=".18"/>
    <path d="M35 180h30v70c0 18-30 18-30 0z" fill="url(#peach)"/>
    <path d="M99 132h30v118c0 18-30 18-30 0z" fill="url(#mint)"/>
    <circle cx="50" cy="151" r="6" fill="#d86657" opacity=".52"/>
    <circle cx="114" cy="102" r="6" fill="#6f9272" opacity=".6"/>
    <rect x="20" y="292" width="124" height="18" rx="9" fill="#252927" opacity=".18"/>
  </g>

  <g transform="translate(420 425)">
    <path d="M0 34c78-48 162-48 251 0 79 43 152 39 219-12" fill="none" stroke="#d86657" stroke-width="12" stroke-linecap="round" opacity=".58"/>
    <path d="M46 17l50 31M138 5l49 55M238 9l46 42M343 0l44 42" stroke="#c98621" stroke-width="7" stroke-linecap="round" opacity=".5"/>
    <circle cx="0" cy="34" r="12" fill="#d86657"/>
    <circle cx="251" cy="34" r="12" fill="#6f9272"/>
    <circle cx="470" cy="22" r="12" fill="#c98621"/>
  </g>
</svg>
