<svg xmlns="http://www.w3.org/2000/svg" width="1200" height="675" viewBox="0 0 1200 675" role="img" aria-labelledby="title desc">
  <title id="title">영업마케팅파트 썸네일</title>
  <desc id="desc">매출 목표, 병원 네트워크, 해외 파트너십, 마케팅 활동을 표현한 영업마케팅파트 소개 이미지</desc>
  <defs>
    <linearGradient id="bg" x1="0" y1="0" x2="1" y2="1">
      <stop offset="0" stop-color="#fff4e8"/>
      <stop offset="0.48" stop-color="#fffdf8"/>
      <stop offset="1" stop-color="#e8f4ef"/>
    </linearGradient>
    <linearGradient id="card" x1="0" y1="0" x2="1" y2="1">
      <stop offset="0" stop-color="#fffdf8"/>
      <stop offset="1" stop-color="#fff2e6"/>
    </linearGradient>
    <filter id="shadow" x="-20%" y="-20%" width="140%" height="140%">
      <feDropShadow dx="0" dy="22" stdDeviation="24" flood-color="#523e23" flood-opacity="0.14"/>
    </filter>
    <pattern id="grid" width="42" height="42" patternUnits="userSpaceOnUse">
      <path d="M 42 0 L 0 0 0 42" fill="none" stroke="#9fb7aa" stroke-opacity="0.12" stroke-width="1"/>
    </pattern>
  </defs>
  <rect width="1200" height="675" fill="url(#bg)"/>
  <rect width="1200" height="675" fill="url(#grid)"/>
  <path d="M700 0h264L796 675H520z" fill="#dcefe8" opacity="0.5"/>
  <path d="M0 0h476L342 675H0z" fill="#ffe1c7" opacity="0.36"/>
  <g filter="url(#shadow)">
    <rect x="112" y="105" width="450" height="390" rx="34" fill="url(#card)" stroke="#ead7bf"/>
    <rect x="154" y="155" width="184" height="34" rx="17" fill="#fff3df" stroke="#efc39d"/>
    <path d="M166 382h326" stroke="#e0c7a7" stroke-width="12" stroke-linecap="round"/>
    <rect x="186" y="301" width="58" height="81" rx="10" fill="#d95f55" opacity="0.86"/>
    <rect x="270" y="254" width="58" height="128" rx="10" fill="#24787c" opacity="0.88"/>
    <rect x="354" y="210" width="58" height="172" rx="10" fill="#bf842d" opacity="0.84"/>
    <path d="M176 242c54-44 109 14 166-28 34-25 66-68 128-38" fill="none" stroke="#d95f55" stroke-width="12" stroke-linecap="round" stroke-linejoin="round"/>
    <circle cx="176" cy="242" r="10" fill="#d95f55"/>
    <circle cx="342" cy="214" r="10" fill="#d95f55"/>
    <circle cx="470" cy="176" r="10" fill="#d95f55"/>
    <text x="184" y="455" font-family="Pretendard, Arial, sans-serif" font-size="28" font-weight="900" fill="#252927">Sales Growth</text>
  </g>
  <g filter="url(#shadow)">
    <rect x="658" y="128" width="376" height="370" rx="34" fill="#fffdf8" stroke="#d7c6af"/>
    <circle cx="750" cy="258" r="58" fill="#eef6f1" stroke="#bbd3c4" stroke-width="3"/>
    <circle cx="876" cy="212" r="46" fill="#fff3df" stroke="#efc39d" stroke-width="3"/>
    <circle cx="888" cy="356" r="52" fill="#f4f0ff" stroke="#d9ddff" stroke-width="3"/>
    <path d="M797 240l38-14M788 286l53 46" stroke="#8fa38f" stroke-width="9" stroke-linecap="round"/>
    <circle cx="750" cy="258" r="15" fill="#24787c"/>
    <circle cx="876" cy="212" r="13" fill="#bf842d"/>
    <circle cx="888" cy="356" r="14" fill="#d95f55"/>
    <path d="M722 432h236" stroke="#27302d" stroke-width="18" stroke-linecap="round"/>
    <path d="M722 464h178" stroke="#d95f55" stroke-width="12" stroke-linecap="round"/>
  </g>
  <g>
    <rect x="112" y="82" width="188" height="42" rx="21" fill="#fff3df" stroke="#efc39d"/>
    <text x="206" y="110" text-anchor="middle" font-family="Pretendard, Arial, sans-serif" font-size="18" font-weight="800" fill="#a55a3d">TEAM INTRO</text>
    <text x="112" y="584" font-family="Pretendard, Arial, sans-serif" font-size="72" font-weight="900" fill="#252927">영업마케팅파트</text>
    <text x="114" y="624" font-family="Pretendard, Arial, sans-serif" font-size="28" font-weight="700" fill="#5f6a61">매출 성장 · 네트워크 확장 · 시장 커뮤니케이션</text>
  </g>
</svg>
